<svg width="51" height="51" viewBox="0 0 51 51" fill="none" xmlns="http://www.w3.org/2000/svg">
<path d="M34 17C37.3815 17 40.6245 18.3433 43.0156 20.7344C45.4067 23.1255 46.75 26.3685 46.75 29.75V44.625H38.25V29.75C38.25 28.6228 37.8022 27.5418 37.0052 26.7448C36.2082 25.9478 35.1272 25.5 34 25.5C32.8728 25.5 31.7918 25.9478 30.9948 26.7448C30.1978 27.5418 29.75 28.6228 29.75 29.75V44.625H21.25V29.75C21.25 26.3685 22.5933 23.1255 24.9844 20.7344C27.3755 18.3433 30.6185 17 34 17V17Z" stroke="black" stroke-width="2" stroke-linecap="round" stroke-linejoin="round"/>
<path d="M12.75 19.125H4.25V44.625H12.75V19.125Z" stroke="black" stroke-width="2" stroke-linecap="round" stroke-linejoin="round"/>
<path d="M8.5 12.75C10.8472 12.75 12.75 10.8472 12.75 8.5C12.75 6.15279 10.8472 4.25 8.5 4.25C6.15279 4.25 4.25 6.15279 4.25 8.5C4.25 10.8472 6.15279 12.75 8.5 12.75Z" stroke="black" stroke-width="2" stroke-linecap="round" stroke-linejoin="round"/>
</svg>
