<svg width="52" height="52" viewBox="0 0 52 52" fill="none" xmlns="http://www.w3.org/2000/svg">
<path d="M34.6667 47.6667V39.2817C34.748 38.2485 34.6084 37.2099 34.2572 36.2349C33.9061 35.2599 33.3514 34.3708 32.63 33.6267C39.4333 32.8684 46.5833 30.29 46.5833 18.46C46.5828 15.435 45.4192 12.526 43.3333 10.335C44.321 7.68846 44.2512 4.76312 43.1383 2.16669C43.1383 2.16669 40.5817 1.40836 34.6667 5.37336C29.7007 4.02747 24.466 4.02747 19.5 5.37336C13.585 1.40836 11.0283 2.16669 11.0283 2.16669C9.91549 4.76312 9.84566 7.68846 10.8333 10.335C8.73195 12.5422 7.56714 15.4775 7.58334 18.525C7.58334 30.2684 14.7333 32.8467 21.5367 33.6917C20.8238 34.4283 20.2741 35.3067 19.9232 36.2699C19.5723 37.233 19.4281 38.2592 19.5 39.2817V47.6667M19.5 41.1667C8.66668 44.4167 8.66668 35.75 4.33334 34.6667L19.5 41.1667Z" stroke="black" stroke-width="2" stroke-linecap="round" stroke-linejoin="round"/>
</svg>
